<svg width="93" height="107" viewBox="0 0 93 107" fill="none" xmlns="http://www.w3.org/2000/svg">
<path d="M4.45713 63.0662C7.46451 68.1494 13.0851 71.5695 19.5229 71.5695C25.7071 71.5695 31.1365 68.413 34.2205 63.6586C37.4995 69.9527 45.5758 74.404 55.0191 74.404C64.7556 74.404 73.0373 69.6712 76.1074 63.0662H76.7342C77.1526 65.4699 79.6662 67.3179 82.7061 67.3179C84.5365 67.3179 86.1751 66.6464 87.2818 65.5886L67.4427 107H24.8473L3.54962 63.0662H4.45713Z" fill="white"/>
<path d="M88.6455 63.2302C88.6572 63.1758 88.6685 63.1213 88.6781 63.0662H88.7405L88.6455 63.2302Z" fill="white"/>
<path d="M63.1832 0C75.3377 0 85.1908 9.51766 85.1908 21.2583C85.1908 25.1453 84.1095 28.7878 82.2236 31.9227C82.4997 31.8997 82.779 31.8874 83.0611 31.8874C88.5502 31.8874 93 36.329 93 41.8079C93 47.2869 88.5502 51.7285 83.0611 51.7285C79.7981 51.7285 76.9024 50.1589 75.0904 47.7349C72.5131 53.7324 64.5032 58.106 55.0191 58.106C46.853 58.106 39.7791 54.8636 36.3254 50.1341C32.9246 55.7543 26.6737 59.5232 19.5229 59.5232C8.7407 59.5232 0 50.9573 0 40.3907C0 29.8242 8.7407 21.2583 19.5229 21.2583C20.7017 21.2583 21.8563 21.3603 22.9775 21.5565C24.1885 15.7272 29.4919 11.3377 35.8511 11.3377C38.3977 11.3377 40.7745 12.0425 42.7875 13.2608C46.0589 5.48394 53.9575 0 63.1832 0Z" fill="white"/>
</svg>
